<svg xmlns="http://www.w3.org/2000/svg" version="1.1" xmlns:xlink="http://www.w3.org/1999/xlink" xmlns:svgjs="http://svgjs.dev/svgjs" viewBox="0 0 14.434796548465425 15.054061682369579"><g transform="matrix(1,0,0,1,1.2283772781389626,10.265809404230616)"><g><path d=" M 0.9717718505859382 1.005 L 0.9717718505859382 0.9809999999999999 L 1.0932718505859382 0.9209999999999999 L 1.0932718505859382 0.09899999999999987 L 0.9717718505859382 0.038999999999999924 L 0.9717718505859382 0.014999999999999902 L 1.7247718505859382 0.014999999999999902 L 1.7247718505859382 0.2729999999999999 L 1.7007718505859382 0.2729999999999999 L 1.6032718505859382 0.09749999999999992 L 1.2507718505859382 0.09749999999999992 L 1.2507718505859382 0.45299999999999985 L 1.499771850585938 0.45299999999999985 L 1.5762718505859383 0.32699999999999985 L 1.6002718505859383 0.32699999999999985 L 1.6002718505859383 0.6584999999999999 L 1.5762718505859383 0.6584999999999999 L 1.499771850585938 0.5354999999999999 L 1.2507718505859382 0.5354999999999999 L 1.2507718505859382 0.9224999999999999 L 1.6437718505859382 0.9224999999999999 L 1.7427718505859382 0.7244999999999999 L 1.7667718505859382 0.7244999999999999 L 1.7667718505859382 1.005 L 0.9717718505859382 1.005 Z M 1.9752667236328134 1.005 L 1.9752667236328134 0.9809999999999999 L 2.0967667236328134 0.9209999999999999 L 2.0967667236328134 0.09899999999999987 L 1.9752667236328134 0.038999999999999924 L 1.9752667236328134 0.014999999999999902 L 2.3907667236328134 0.014999999999999902 L 2.3907667236328134 0.038999999999999924 L 2.2542667236328136 0.09899999999999987 L 2.2542667236328136 0.9224999999999999 L 2.6097667236328133 0.9224999999999999 L 2.7162667236328133 0.6644999999999999 L 2.7402667236328133 0.6644999999999999 L 2.7402667236328133 1.005 L 1.9752667236328134 1.005 Z M 2.9306964111328133 1.005 L 2.9306964111328133 0.9809999999999999 L 3.0521964111328135 0.9209999999999999 L 3.0521964111328135 0.09899999999999987 L 2.9306964111328133 0.038999999999999924 L 2.9306964111328133 0.014999999999999902 L 3.6836964111328134 0.014999999999999902 L 3.6836964111328134 0.2729999999999999 L 3.6596964111328134 0.2729999999999999 L 3.5621964111328133 0.09749999999999992 L 3.2096964111328132 0.09749999999999992 L 3.2096964111328132 0.45299999999999985 L 3.4586964111328133 0.45299999999999985 L 3.5351964111328136 0.32699999999999985 L 3.5591964111328136 0.32699999999999985 L 3.5591964111328136 0.6584999999999999 L 3.5351964111328136 0.6584999999999999 L 3.4586964111328133 0.5354999999999999 L 3.2096964111328132 0.5354999999999999 L 3.2096964111328132 0.9224999999999999 L 3.6026964111328135 0.9224999999999999 L 3.7016964111328132 0.7244999999999999 L 3.7256964111328132 0.7244999999999999 L 3.7256964111328132 1.005 L 2.9306964111328133 1.005 Z M 4.444191284179689 1.0199999999999998 Q 4.289691284179689 1.0199999999999998 4.177191284179688 0.9569999999999999 Q 4.0646912841796885 0.8939999999999999 4.003191284179689 0.7844999999999999 Q 3.9416912841796887 0.6749999999999998 3.9416912841796887 0.5354999999999999 Q 3.9416912841796887 0.4274999999999999 3.9836912841796885 0.3314999999999999 Q 4.025691284179689 0.23549999999999993 4.098441284179689 0.16049999999999986 Q 4.171191284179689 0.08549999999999991 4.265691284179688 0.042749999999999844 Q 4.360191284179688 -2.220446049250313e-16 4.466691284179689 -2.220446049250313e-16 Q 4.543191284179689 -2.220446049250313e-16 4.595691284179688 0.009749999999999925 Q 4.648191284179688 0.01949999999999985 4.689441284179688 0.03524999999999989 Q 4.730691284179689 0.05099999999999982 4.772691284179689 0.07199999999999984 L 4.781691284179688 0.33899999999999986 L 4.754691284179689 0.33899999999999986 L 4.6511912841796885 0.1439999999999999 Q 4.600191284179688 0.10799999999999987 4.558941284179689 0.09149999999999991 Q 4.517691284179689 0.07499999999999984 4.466691284179689 0.07499999999999984 Q 4.363191284179688 0.07499999999999984 4.280691284179689 0.1289999999999999 Q 4.198191284179688 0.18299999999999983 4.150941284179688 0.2782499999999999 Q 4.103691284179688 0.37349999999999983 4.103691284179688 0.4979999999999999 Q 4.103691284179688 0.6375 4.149441284179689 0.73725 Q 4.195191284179689 0.8369999999999999 4.273191284179688 0.8894999999999998 Q 4.351191284179689 0.942 4.445691284179689 0.942 Q 4.523691284179689 0.942 4.576941284179688 0.9209999999999999 Q 4.630191284179689 0.8999999999999999 4.672191284179688 0.8714999999999999 L 4.772691284179689 0.7034999999999999 L 4.798191284179689 0.7034999999999999 L 4.780191284179689 0.9449999999999998 Q 4.714191284179688 0.9779999999999999 4.639191284179689 0.9989999999999999 Q 4.564191284179689 1.0199999999999998 4.444191284179689 1.0199999999999998 Z M 5.197125366210939 1.005 L 5.197125366210939 0.9809999999999999 L 5.348625366210939 0.9209999999999999 L 5.348625366210939 0.09749999999999992 L 5.111625366210939 0.09749999999999992 L 5.0051253662109385 0.32399999999999984 L 4.9811253662109385 0.32399999999999984 L 4.9811253662109385 0.014999999999999902 L 5.8721253662109385 0.014999999999999902 L 5.8721253662109385 0.32399999999999984 L 5.8481253662109385 0.32399999999999984 L 5.743125366210939 0.09749999999999992 L 5.504625366210939 0.09749999999999992 L 5.504625366210939 0.9209999999999999 L 5.657625366210938 0.9809999999999999 L 5.657625366210938 1.005 L 5.197125366210939 1.005 Z M 6.041614379882814 1.005 L 6.041614379882814 0.9809999999999999 L 6.163114379882814 0.9209999999999999 L 6.163114379882814 0.09899999999999987 L 6.041614379882814 0.038999999999999924 L 6.041614379882814 0.014999999999999902 L 6.458614379882814 0.014999999999999902 Q 6.616114379882815 0.014999999999999902 6.7068643798828145 0.08024999999999982 Q 6.797614379882814 0.14549999999999985 6.797614379882814 0.25949999999999984 Q 6.797614379882814 0.3434999999999999 6.740614379882814 0.4079999999999999 Q 6.6836143798828145 0.4724999999999999 6.5906143798828145 0.5069999999999999 L 6.874114379882815 0.9254999999999999 L 6.974614379882814 0.9809999999999999 L 6.974614379882814 1.005 L 6.733114379882815 1.005 L 6.445114379882814 0.5489999999999999 L 6.320614379882814 0.5489999999999999 L 6.320614379882814 0.9194999999999999 L 6.433114379882814 0.9809999999999999 L 6.433114379882814 1.005 L 6.041614379882814 1.005 Z M 6.409114379882814 0.09749999999999992 L 6.320614379882814 0.09749999999999992 L 6.320614379882814 0.4694999999999999 L 6.418114379882814 0.4694999999999999 Q 6.511114379882814 0.4694999999999999 6.571864379882815 0.4162499999999999 Q 6.632614379882814 0.3629999999999999 6.632614379882814 0.28049999999999986 Q 6.632614379882814 0.19499999999999984 6.573364379882815 0.14624999999999988 Q 6.514114379882814 0.09749999999999992 6.409114379882814 0.09749999999999992 Z M 7.5819693603515645 1.0199999999999998 Q 7.473969360351565 1.0199999999999998 7.381719360351565 0.9817499999999999 Q 7.289469360351565 0.9434999999999999 7.221219360351565 0.8752499999999999 Q 7.152969360351565 0.8069999999999999 7.115469360351565 0.714 Q 7.077969360351565 0.6209999999999999 7.077969360351565 0.5099999999999999 Q 7.077969360351565 0.3989999999999999 7.115469360351565 0.3059999999999998 Q 7.152969360351565 0.21299999999999986 7.221219360351565 0.14474999999999982 Q 7.289469360351565 0.0764999999999999 7.381719360351565 0.038249999999999895 Q 7.473969360351565 -2.220446049250313e-16 7.5819693603515645 -2.220446049250313e-16 Q 7.689969360351565 -2.220446049250313e-16 7.782219360351565 0.038249999999999895 Q 7.874469360351565 0.0764999999999999 7.942719360351565 0.14474999999999982 Q 8.010969360351565 0.21299999999999986 8.049219360351564 0.3059999999999998 Q 8.087469360351564 0.3989999999999999 8.087469360351564 0.5099999999999999 Q 8.087469360351564 0.6209999999999999 8.049219360351564 0.714 Q 8.010969360351565 0.8069999999999999 7.942719360351565 0.8752499999999999 Q 7.874469360351565 0.9434999999999999 7.782219360351565 0.9817499999999999 Q 7.689969360351565 1.0199999999999998 7.5819693603515645 1.0199999999999998 Z M 7.611969360351565 0.9449999999999998 Q 7.703469360351565 0.9449999999999998 7.772469360351565 0.8969999999999999 Q 7.841469360351565 0.8489999999999999 7.880469360351565 0.7619999999999999 Q 7.919469360351565 0.6749999999999998 7.919469360351565 0.5564999999999999 Q 7.919469360351565 0.4109999999999999 7.871469360351565 0.3022499999999999 Q 7.823469360351565 0.1934999999999999 7.740969360351565 0.13349999999999984 Q 7.658469360351565 0.0734999999999999 7.5579693603515645 0.0734999999999999 Q 7.466469360351565 0.0734999999999999 7.395969360351565 0.12074999999999991 Q 7.325469360351565 0.16799999999999993 7.285719360351565 0.2549999999999999 Q 7.245969360351565 0.34199999999999986 7.245969360351565 0.4604999999999999 Q 7.245969360351565 0.6059999999999999 7.294719360351565 0.7154999999999999 Q 7.343469360351564 0.825 7.426719360351565 0.8849999999999999 Q 7.5099693603515645 0.9449999999999998 7.611969360351565 0.9449999999999998 Z M 8.283937133789065 1.005 L 8.283937133789065 0.9809999999999999 L 8.405437133789066 0.9209999999999999 L 8.405437133789066 0.10199999999999987 L 8.285437133789065 0.038999999999999924 L 8.285437133789065 0.014999999999999902 L 8.520937133789065 0.014999999999999902 L 9.095437133789066 0.7214999999999998 L 9.095437133789066 0.09749999999999992 L 8.940937133789065 0.038999999999999924 L 8.940937133789065 0.014999999999999902 L 9.320437133789065 0.014999999999999902 L 9.320437133789065 0.038999999999999924 L 9.200437133789066 0.09749999999999992 L 9.200437133789066 1.0125 L 9.135937133789065 1.0125 L 8.510437133789065 0.24449999999999983 L 8.510437133789065 0.9224999999999999 L 8.664937133789065 0.9809999999999999 L 8.664937133789065 1.005 L 8.283937133789065 1.005 Z M 9.501855102539066 1.005 L 9.501855102539066 0.9809999999999999 L 9.624855102539065 0.9209999999999999 L 9.624855102539065 0.09899999999999987 L 9.501855102539066 0.038999999999999924 L 9.501855102539066 0.014999999999999902 L 9.902355102539065 0.014999999999999902 L 9.902355102539065 0.038999999999999924 L 9.780855102539066 0.09899999999999987 L 9.780855102539066 0.9209999999999999 L 9.902355102539065 0.9809999999999999 L 9.902355102539065 1.005 L 9.501855102539066 1.005 Z M 10.613292846679691 1.0199999999999998 Q 10.458792846679692 1.0199999999999998 10.346292846679692 0.9569999999999999 Q 10.233792846679691 0.8939999999999999 10.172292846679692 0.7844999999999999 Q 10.110792846679692 0.6749999999999998 10.110792846679692 0.5354999999999999 Q 10.110792846679692 0.4274999999999999 10.152792846679692 0.3314999999999999 Q 10.194792846679691 0.23549999999999993 10.267542846679692 0.16049999999999986 Q 10.340292846679692 0.08549999999999991 10.434792846679692 0.042749999999999844 Q 10.529292846679692 -2.220446049250313e-16 10.635792846679692 -2.220446049250313e-16 Q 10.712292846679691 -2.220446049250313e-16 10.764792846679692 0.009749999999999925 Q 10.817292846679692 0.01949999999999985 10.858542846679692 0.03524999999999989 Q 10.899792846679691 0.05099999999999982 10.941792846679691 0.07199999999999984 L 10.950792846679692 0.33899999999999986 L 10.923792846679692 0.33899999999999986 L 10.820292846679692 0.1439999999999999 Q 10.769292846679692 0.10799999999999987 10.728042846679692 0.09149999999999991 Q 10.686792846679692 0.07499999999999984 10.635792846679692 0.07499999999999984 Q 10.532292846679692 0.07499999999999984 10.449792846679692 0.1289999999999999 Q 10.36729284667969 0.18299999999999983 10.32004284667969 0.2782499999999999 Q 10.27279284667969 0.37349999999999983 10.27279284667969 0.4979999999999999 Q 10.27279284667969 0.6375 10.31854284667969 0.73725 Q 10.364292846679692 0.8369999999999999 10.442292846679692 0.8894999999999998 Q 10.520292846679691 0.942 10.614792846679691 0.942 Q 10.69279284667969 0.942 10.746042846679691 0.9209999999999999 Q 10.799292846679691 0.8999999999999999 10.841292846679691 0.8714999999999999 L 10.941792846679691 0.7034999999999999 L 10.967292846679692 0.7034999999999999 L 10.949292846679691 0.9449999999999998 Q 10.88329284667969 0.9779999999999999 10.808292846679691 0.9989999999999999 Q 10.733292846679692 1.0199999999999998 10.613292846679691 1.0199999999999998 Z M 4.258846801757812 2.52 Q 4.164346801757812 2.52 4.097596801757812 2.502 Q 4.0308468017578125 2.484 3.960346801757812 2.4495 L 3.9453468017578124 2.202 L 3.9693468017578124 2.202 L 4.048846801757812 2.3655 Q 4.1013468017578125 2.409 4.152346801757812 2.4285 Q 4.203346801757812 2.448 4.254346801757812 2.448 Q 4.341346801757812 2.448 4.391596801757812 2.403 Q 4.441846801757812 2.358 4.441846801757812 2.28 Q 4.441846801757812 2.2184999999999997 4.414096801757812 2.18175 Q 4.386346801757812 2.145 4.331596801757812 2.11575 Q 4.276846801757812 2.0865 4.197346801757813 2.0475 Q 4.090846801757812 1.9964999999999997 4.033846801757813 1.9402499999999998 Q 3.9768468017578122 1.884 3.9768468017578122 1.782 Q 3.9768468017578122 1.7279999999999998 4.003096801757812 1.6777499999999999 Q 4.0293468017578125 1.6275 4.074346801757812 1.5877499999999998 Q 4.119346801757812 1.5479999999999998 4.174846801757813 1.524 Q 4.230346801757812 1.4999999999999998 4.290346801757813 1.4999999999999998 Q 4.360846801757813 1.4999999999999998 4.422346801757812 1.5164999999999997 Q 4.483846801757812 1.533 4.543846801757812 1.5644999999999998 L 4.558846801757812 1.8045 L 4.534846801757812 1.8045 L 4.456846801757813 1.644 Q 4.408846801757813 1.6065 4.369846801757812 1.5899999999999999 Q 4.330846801757812 1.5735 4.281346801757812 1.5735 Q 4.2168468017578125 1.5735 4.174096801757813 1.617 Q 4.131346801757812 1.6604999999999999 4.131346801757812 1.7265 Q 4.131346801757812 1.7999999999999998 4.177096801757813 1.8419999999999999 Q 4.222846801757813 1.884 4.324846801757812 1.932 Q 4.414846801757812 1.9754999999999998 4.474096801757812 2.01525 Q 4.533346801757812 2.0549999999999997 4.561846801757812 2.1045 Q 4.590346801757812 2.154 4.590346801757812 2.2304999999999997 Q 4.590346801757812 2.3009999999999997 4.560346801757812 2.355 Q 4.530346801757812 2.409 4.480846801757812 2.44575 Q 4.431346801757813 2.4825 4.373596801757812 2.5012499999999998 Q 4.315846801757813 2.52 4.258846801757812 2.52 Z M 4.776278686523437 2.505 L 4.776278686523437 2.481 L 4.897778686523437 2.421 L 4.897778686523437 1.5989999999999998 L 4.776278686523437 1.539 L 4.776278686523437 1.515 L 5.173778686523437 1.515 L 5.173778686523437 1.539 L 5.055278686523437 1.5989999999999998 L 5.055278686523437 1.9529999999999998 L 5.542778686523437 1.9529999999999998 L 5.542778686523437 1.5989999999999998 L 5.422778686523437 1.539 L 5.422778686523437 1.515 L 5.820278686523437 1.515 L 5.820278686523437 1.539 L 5.698778686523437 1.5989999999999998 L 5.698778686523437 2.421 L 5.820278686523437 2.481 L 5.820278686523437 2.505 L 5.422778686523437 2.505 L 5.422778686523437 2.481 L 5.542778686523437 2.421 L 5.542778686523437 2.0355 L 5.055278686523437 2.0355 L 5.055278686523437 2.421 L 5.173778686523437 2.481 L 5.173778686523437 2.505 L 4.776278686523437 2.505 Z M 6.526747192382812 2.52 Q 6.4187471923828125 2.52 6.326497192382813 2.48175 Q 6.234247192382813 2.4435 6.165997192382813 2.37525 Q 6.097747192382813 2.307 6.060247192382812 2.214 Q 6.022747192382813 2.121 6.022747192382813 2.01 Q 6.022747192382813 1.899 6.060247192382812 1.8059999999999998 Q 6.097747192382813 1.7129999999999999 6.165997192382813 1.6447499999999997 Q 6.234247192382813 1.5764999999999998 6.326497192382813 1.53825 Q 6.4187471923828125 1.4999999999999998 6.526747192382812 1.4999999999999998 Q 6.634747192382813 1.4999999999999998 6.726997192382813 1.53825 Q 6.819247192382813 1.5764999999999998 6.8874971923828125 1.6447499999999997 Q 6.9557471923828125 1.7129999999999999 6.993997192382812 1.8059999999999998 Q 7.032247192382813 1.899 7.032247192382813 2.01 Q 7.032247192382813 2.121 6.993997192382812 2.214 Q 6.9557471923828125 2.307 6.8874971923828125 2.37525 Q 6.819247192382813 2.4435 6.726997192382813 2.48175 Q 6.634747192382813 2.52 6.526747192382812 2.52 Z M 6.5567471923828125 2.445 Q 6.648247192382812 2.445 6.717247192382812 2.397 Q 6.786247192382812 2.3489999999999998 6.825247192382813 2.262 Q 6.864247192382813 2.175 6.864247192382813 2.0564999999999998 Q 6.864247192382813 1.911 6.8162471923828125 1.80225 Q 6.7682471923828125 1.6934999999999998 6.685747192382813 1.6334999999999997 Q 6.603247192382812 1.5735 6.502747192382812 1.5735 Q 6.411247192382812 1.5735 6.340747192382812 1.62075 Q 6.270247192382812 1.668 6.2304971923828125 1.755 Q 6.190747192382813 1.8419999999999999 6.190747192382813 1.9605 Q 6.190747192382813 2.106 6.239497192382813 2.2155 Q 6.288247192382812 2.3249999999999997 6.3714971923828125 2.385 Q 6.454747192382812 2.445 6.5567471923828125 2.445 Z M 7.234714965820313 2.505 L 7.234714965820313 2.481 L 7.356214965820313 2.421 L 7.356214965820313 1.5989999999999998 L 7.234714965820313 1.539 L 7.234714965820313 1.515 L 7.654714965820313 1.515 Q 7.831714965820313 1.515 7.938964965820313 1.5795 Q 8.046214965820313 1.644 8.046214965820313 1.7834999999999999 Q 8.046214965820313 1.8659999999999999 7.989964965820313 1.9297499999999999 Q 7.933714965820313 1.9934999999999998 7.837714965820313 2.0302499999999997 Q 7.741714965820313 2.0669999999999997 7.618714965820313 2.0669999999999997 L 7.513714965820313 2.0669999999999997 L 7.513714965820313 2.421 L 7.651714965820313 2.481 L 7.651714965820313 2.505 L 7.234714965820313 2.505 Z M 7.513714965820313 1.5975 L 7.513714965820313 1.9874999999999998 L 7.627714965820313 1.9874999999999998 Q 7.746214965820313 1.9874999999999998 7.8137149658203136 1.9335 Q 7.8812149658203134 1.8794999999999997 7.8812149658203134 1.7954999999999999 Q 7.8812149658203134 1.6905 7.8129649658203135 1.644 Q 7.744714965820313 1.5975 7.617214965820313 1.5975 L 7.513714965820313 1.5975 Z" fill="#ffffff" fill-rule="nonzero"></path></g><g><path d=" M 0.3 3.559875 Q 0.2235 3.559875 0.168 3.528375 Q 0.1125 3.496875 0.0825 3.4425 Q 0.0525 3.388125 0.0525 3.318375 Q 0.0525 3.2651250000000003 0.073125 3.21675 Q 0.09375 3.168375 0.129375 3.130875 Q 0.165 3.093375 0.211875 3.071625 Q 0.25875 3.049875 0.31125 3.049875 Q 0.34875 3.049875 0.375 3.0547500000000003 Q 0.40125 3.059625 0.421875 3.0675 Q 0.4425 3.075375 0.4635 3.085875 L 0.46725 3.2171250000000002 L 0.45375 3.2171250000000002 L 0.40800000000000003 3.125625 Q 0.3795 3.105375 0.358125 3.096375 Q 0.33675 3.087375 0.30975 3.087375 Q 0.25575000000000003 3.087375 0.213375 3.114375 Q 0.171 3.141375 0.146625 3.18825 Q 0.12225 3.235125 0.12225 3.295875 Q 0.12225 3.367125 0.145875 3.41775 Q 0.1695 3.468375 0.209625 3.495 Q 0.24975 3.5216250000000002 0.2985 3.5216250000000002 Q 0.33975 3.5216250000000002 0.367875 3.5100000000000002 Q 0.396 3.4983750000000002 0.41775 3.484125 L 0.46275 3.403875 L 0.47550000000000003 3.403875 L 0.46725 3.523125 Q 0.4455 3.5343750000000003 0.42262500000000003 3.542625 Q 0.39975 3.550875 0.3705 3.555375 Q 0.34125 3.559875 0.3 3.559875 Z M 0.8542141113281251 3.559875 Q 0.800214111328125 3.559875 0.7548391113281251 3.54075 Q 0.709464111328125 3.5216250000000002 0.6757141113281251 3.4875000000000003 Q 0.641964111328125 3.453375 0.6232141113281251 3.406875 Q 0.604464111328125 3.360375 0.604464111328125 3.304875 Q 0.604464111328125 3.249375 0.6232141113281251 3.202875 Q 0.641964111328125 3.156375 0.6757141113281251 3.12225 Q 0.709464111328125 3.0881250000000002 0.7548391113281251 3.069 Q 0.800214111328125 3.049875 0.8542141113281251 3.049875 Q 0.908214111328125 3.049875 0.9539641113281251 3.069 Q 0.9997141113281252 3.0881250000000002 1.033464111328125 3.12225 Q 1.067214111328125 3.156375 1.085964111328125 3.202875 Q 1.104714111328125 3.249375 1.104714111328125 3.304875 Q 1.104714111328125 3.360375 1.085964111328125 3.406875 Q 1.067214111328125 3.453375 1.033464111328125 3.4875000000000003 Q 0.9997141113281252 3.5216250000000002 0.9539641113281251 3.54075 Q 0.908214111328125 3.559875 0.8542141113281251 3.559875 Z M 0.8699641113281251 3.5223750000000003 Q 0.917964111328125 3.5223750000000003 0.954339111328125 3.4983750000000002 Q 0.990714111328125 3.474375 1.0113391113281252 3.430875 Q 1.031964111328125 3.387375 1.031964111328125 3.328125 Q 1.031964111328125 3.255375 1.0064641113281252 3.201 Q 0.9809641113281251 3.1466250000000002 0.937839111328125 3.116625 Q 0.8947141113281251 3.086625 0.841464111328125 3.086625 Q 0.7934641113281251 3.086625 0.756339111328125 3.11025 Q 0.7192141113281251 3.133875 0.698214111328125 3.177375 Q 0.677214111328125 3.220875 0.677214111328125 3.280125 Q 0.677214111328125 3.352875 0.703089111328125 3.407625 Q 0.7289641113281251 3.462375 0.7724641113281251 3.492375 Q 0.8159641113281251 3.5223750000000003 0.8699641113281251 3.5223750000000003 Z M 1.474385009765625 3.559875 Q 1.4203850097656252 3.559875 1.375010009765625 3.54075 Q 1.329635009765625 3.5216250000000002 1.2958850097656252 3.4875000000000003 Q 1.2621350097656252 3.453375 1.2433850097656252 3.406875 Q 1.2246350097656251 3.360375 1.2246350097656251 3.304875 Q 1.2246350097656251 3.249375 1.2433850097656252 3.202875 Q 1.2621350097656252 3.156375 1.2958850097656252 3.12225 Q 1.329635009765625 3.0881250000000002 1.375010009765625 3.069 Q 1.4203850097656252 3.049875 1.474385009765625 3.049875 Q 1.528385009765625 3.049875 1.5741350097656253 3.069 Q 1.6198850097656252 3.0881250000000002 1.6536350097656252 3.12225 Q 1.687385009765625 3.156375 1.7061350097656252 3.202875 Q 1.7248850097656252 3.249375 1.7248850097656252 3.304875 Q 1.7248850097656252 3.360375 1.7061350097656252 3.406875 Q 1.687385009765625 3.453375 1.6536350097656252 3.4875000000000003 Q 1.6198850097656252 3.5216250000000002 1.5741350097656253 3.54075 Q 1.528385009765625 3.559875 1.474385009765625 3.559875 Z M 1.4901350097656252 3.5223750000000003 Q 1.5381350097656252 3.5223750000000003 1.574510009765625 3.4983750000000002 Q 1.610885009765625 3.474375 1.6315100097656252 3.430875 Q 1.652135009765625 3.387375 1.652135009765625 3.328125 Q 1.652135009765625 3.255375 1.626635009765625 3.201 Q 1.6011350097656252 3.1466250000000002 1.558010009765625 3.116625 Q 1.5148850097656252 3.086625 1.461635009765625 3.086625 Q 1.4136350097656252 3.086625 1.376510009765625 3.11025 Q 1.3393850097656252 3.133875 1.3183850097656251 3.177375 Q 1.2973850097656252 3.220875 1.2973850097656252 3.280125 Q 1.2973850097656252 3.352875 1.323260009765625 3.407625 Q 1.3491350097656252 3.462375 1.392635009765625 3.492375 Q 1.4361350097656251 3.5223750000000003 1.4901350097656252 3.5223750000000003 Z M 1.8335943603515628 3.552375 L 1.8335943603515628 3.540375 L 1.8935943603515626 3.5103750000000002 L 1.8935943603515626 3.099375 L 1.8335943603515628 3.069375 L 1.8335943603515628 3.057375 L 2.028594360351563 3.057375 L 2.028594360351563 3.069375 L 1.9610943603515627 3.099375 L 1.9610943603515627 3.5111250000000003 L 2.1433443603515627 3.5111250000000003 L 2.194344360351563 3.385875 L 2.2063443603515625 3.385875 L 2.2063443603515625 3.552375 L 1.8335943603515628 3.552375 Z M 2.51001708984375 3.552375 L 2.51001708984375 3.540375 L 2.57001708984375 3.5103750000000002 L 2.57001708984375 3.099375 L 2.51001708984375 3.069375 L 2.51001708984375 3.057375 L 2.8767670898437503 3.057375 L 2.8767670898437503 3.186375 L 2.8647670898437503 3.186375 L 2.81826708984375 3.098625 L 2.63751708984375 3.098625 L 2.63751708984375 3.276375 L 2.76501708984375 3.276375 L 2.80251708984375 3.214125 L 2.81451708984375 3.214125 L 2.81451708984375 3.378375 L 2.80251708984375 3.378375 L 2.76501708984375 3.317625 L 2.63751708984375 3.317625 L 2.63751708984375 3.5111250000000003 L 2.83926708984375 3.5111250000000003 L 2.88576708984375 3.415875 L 2.89776708984375 3.415875 L 2.89776708984375 3.552375 L 2.51001708984375 3.552375 Z M 3.006500244140625 3.552375 L 3.006500244140625 3.540375 L 3.066500244140625 3.5103750000000002 L 3.066500244140625 3.099375 L 3.006500244140625 3.069375 L 3.006500244140625 3.057375 L 3.201500244140625 3.057375 L 3.201500244140625 3.069375 L 3.134000244140625 3.099375 L 3.134000244140625 3.5111250000000003 L 3.3162502441406247 3.5111250000000003 L 3.367250244140625 3.385875 L 3.379250244140625 3.385875 L 3.379250244140625 3.552375 L 3.006500244140625 3.552375 Z M 3.48046142578125 3.552375 L 3.48046142578125 3.540375 L 3.54046142578125 3.5103750000000002 L 3.54046142578125 3.099375 L 3.48046142578125 3.069375 L 3.48046142578125 3.057375 L 3.84721142578125 3.057375 L 3.84721142578125 3.186375 L 3.83521142578125 3.186375 L 3.7887114257812495 3.098625 L 3.60796142578125 3.098625 L 3.60796142578125 3.276375 L 3.7354614257812497 3.276375 L 3.77296142578125 3.214125 L 3.78496142578125 3.214125 L 3.78496142578125 3.378375 L 3.77296142578125 3.378375 L 3.7354614257812497 3.317625 L 3.60796142578125 3.317625 L 3.60796142578125 3.5111250000000003 L 3.80971142578125 3.5111250000000003 L 3.85621142578125 3.415875 L 3.86821142578125 3.415875 L 3.86821142578125 3.552375 L 3.48046142578125 3.552375 Z M 4.228194580078124 3.559875 Q 4.151694580078124 3.559875 4.096194580078125 3.528375 Q 4.040694580078124 3.496875 4.010694580078124 3.4425 Q 3.980694580078125 3.388125 3.980694580078125 3.318375 Q 3.980694580078125 3.2651250000000003 4.001319580078125 3.21675 Q 4.021944580078125 3.168375 4.057569580078124 3.130875 Q 4.093194580078125 3.093375 4.140069580078125 3.071625 Q 4.186944580078125 3.049875 4.239444580078125 3.049875 Q 4.2769445800781245 3.049875 4.303194580078125 3.0547500000000003 Q 4.329444580078125 3.059625 4.350069580078125 3.0675 Q 4.3706945800781245 3.075375 4.391694580078124 3.085875 L 4.3954445800781246 3.2171250000000002 L 4.381944580078125 3.2171250000000002 L 4.336194580078125 3.125625 Q 4.307694580078125 3.105375 4.286319580078125 3.096375 Q 4.264944580078125 3.087375 4.237944580078125 3.087375 Q 4.1839445800781245 3.087375 4.141569580078125 3.114375 Q 4.099194580078125 3.141375 4.074819580078125 3.18825 Q 4.050444580078125 3.235125 4.050444580078125 3.295875 Q 4.050444580078125 3.367125 4.074069580078125 3.41775 Q 4.097694580078125 3.468375 4.137819580078125 3.495 Q 4.177944580078124 3.5216250000000002 4.226694580078124 3.5216250000000002 Q 4.267944580078124 3.5216250000000002 4.296069580078124 3.5100000000000002 Q 4.3241945800781245 3.4983750000000002 4.3459445800781245 3.484125 L 4.390944580078124 3.403875 L 4.403694580078125 3.403875 L 4.3954445800781246 3.523125 Q 4.373694580078125 3.5343750000000003 4.350819580078125 3.542625 Q 4.327944580078125 3.550875 4.298694580078124 3.555375 Q 4.269444580078124 3.559875 4.228194580078124 3.559875 Z M 4.60914404296875 3.552375 L 4.60914404296875 3.540375 L 4.68414404296875 3.5103750000000002 L 4.68414404296875 3.098625 L 4.56189404296875 3.098625 L 4.51089404296875 3.208875 L 4.49889404296875 3.208875 L 4.49889404296875 3.057375 L 4.93689404296875 3.057375 L 4.93689404296875 3.208875 L 4.9248940429687496 3.208875 L 4.87389404296875 3.098625 L 4.75164404296875 3.098625 L 4.75164404296875 3.5103750000000002 L 4.82664404296875 3.540375 L 4.82664404296875 3.552375 L 4.60914404296875 3.552375 Z M 5.026856689453125 3.552375 L 5.026856689453125 3.540375 L 5.086856689453125 3.5103750000000002 L 5.086856689453125 3.099375 L 5.026856689453125 3.069375 L 5.026856689453125 3.057375 L 5.2203566894531255 3.057375 Q 5.299106689453125 3.057375 5.344481689453125 3.09 Q 5.389856689453125 3.122625 5.389856689453125 3.179625 Q 5.389856689453125 3.221625 5.3613566894531255 3.255 Q 5.332856689453125 3.2883750000000003 5.285606689453125 3.305625 L 5.428106689453125 3.513375 L 5.4776066894531255 3.540375 L 5.4776066894531255 3.552375 L 5.369606689453125 3.552375 L 5.224106689453125 3.325125 L 5.154356689453125 3.325125 L 5.154356689453125 3.509625 L 5.210606689453125 3.540375 L 5.210606689453125 3.552375 L 5.026856689453125 3.552375 Z M 5.203106689453125 3.098625 L 5.154356689453125 3.098625 L 5.154356689453125 3.283875 L 5.207606689453125 3.283875 Q 5.254856689453125 3.283875 5.285981689453125 3.25725 Q 5.317106689453126 3.230625 5.317106689453126 3.189375 Q 5.317106689453126 3.1473750000000003 5.286356689453125 3.123 Q 5.255606689453125 3.098625 5.203106689453125 3.098625 Z M 5.783568969726563 3.559875 Q 5.729568969726563 3.559875 5.684193969726563 3.54075 Q 5.638818969726563 3.5216250000000002 5.605068969726563 3.4875000000000003 Q 5.571318969726563 3.453375 5.552568969726563 3.406875 Q 5.533818969726563 3.360375 5.533818969726563 3.304875 Q 5.533818969726563 3.249375 5.552568969726563 3.202875 Q 5.571318969726563 3.156375 5.605068969726563 3.12225 Q 5.638818969726563 3.0881250000000002 5.684193969726563 3.069 Q 5.729568969726563 3.049875 5.783568969726563 3.049875 Q 5.837568969726563 3.049875 5.883318969726563 3.069 Q 5.929068969726563 3.0881250000000002 5.962818969726563 3.12225 Q 5.996568969726563 3.156375 6.015318969726563 3.202875 Q 6.034068969726563 3.249375 6.034068969726563 3.304875 Q 6.034068969726563 3.360375 6.015318969726563 3.406875 Q 5.996568969726563 3.453375 5.962818969726563 3.4875000000000003 Q 5.929068969726563 3.5216250000000002 5.883318969726563 3.54075 Q 5.837568969726563 3.559875 5.783568969726563 3.559875 Z M 5.799318969726563 3.5223750000000003 Q 5.847318969726563 3.5223750000000003 5.883693969726563 3.4983750000000002 Q 5.920068969726563 3.474375 5.940693969726563 3.430875 Q 5.9613189697265625 3.387375 5.9613189697265625 3.328125 Q 5.9613189697265625 3.255375 5.935818969726563 3.201 Q 5.910318969726563 3.1466250000000002 5.867193969726563 3.116625 Q 5.824068969726563 3.086625 5.770818969726563 3.086625 Q 5.722818969726563 3.086625 5.685693969726563 3.11025 Q 5.648568969726563 3.133875 5.627568969726563 3.177375 Q 5.606568969726563 3.220875 5.606568969726563 3.280125 Q 5.606568969726563 3.352875 5.632443969726563 3.407625 Q 5.658318969726563 3.462375 5.701818969726563 3.492375 Q 5.745318969726563 3.5223750000000003 5.799318969726563 3.5223750000000003 Z M 6.139028320312501 3.552375 L 6.139028320312501 3.540375 L 6.199028320312501 3.5103750000000002 L 6.199028320312501 3.1008750000000003 L 6.139778320312501 3.069375 L 6.139778320312501 3.057375 L 6.2500283203125 3.057375 L 6.536528320312501 3.417375 L 6.536528320312501 3.097875 L 6.4615283203125005 3.069375 L 6.4615283203125005 3.057375 L 6.6482783203125 3.057375 L 6.6482783203125 3.069375 L 6.589028320312501 3.098625 L 6.589028320312501 3.556125 L 6.561278320312501 3.556125 L 6.2515283203125005 3.165375 L 6.2515283203125005 3.5111250000000003 L 6.326528320312501 3.540375 L 6.326528320312501 3.552375 L 6.139028320312501 3.552375 Z M 6.745733642578126 3.552375 L 6.745733642578126 3.540375 L 6.805733642578126 3.5103750000000002 L 6.805733642578126 3.099375 L 6.745733642578126 3.069375 L 6.745733642578126 3.057375 L 6.933233642578126 3.057375 L 6.933233642578126 3.069375 L 6.873233642578126 3.099375 L 6.873233642578126 3.5103750000000002 L 6.933233642578126 3.540375 L 6.933233642578126 3.552375 L 6.745733642578126 3.552375 Z M 7.293198852539064 3.559875 Q 7.216698852539063 3.559875 7.161198852539064 3.528375 Q 7.105698852539064 3.496875 7.075698852539063 3.4425 Q 7.045698852539064 3.388125 7.045698852539064 3.318375 Q 7.045698852539064 3.2651250000000003 7.066323852539064 3.21675 Q 7.086948852539064 3.168375 7.122573852539063 3.130875 Q 7.158198852539064 3.093375 7.205073852539064 3.071625 Q 7.251948852539064 3.049875 7.304448852539064 3.049875 Q 7.341948852539064 3.049875 7.368198852539064 3.0547500000000003 Q 7.394448852539064 3.059625 7.415073852539064 3.0675 Q 7.435698852539064 3.075375 7.456698852539064 3.085875 L 7.460448852539064 3.2171250000000002 L 7.446948852539064 3.2171250000000002 L 7.401198852539064 3.125625 Q 7.372698852539064 3.105375 7.351323852539064 3.096375 Q 7.329948852539064 3.087375 7.302948852539064 3.087375 Q 7.248948852539064 3.087375 7.206573852539064 3.114375 Q 7.164198852539064 3.141375 7.139823852539064 3.18825 Q 7.115448852539064 3.235125 7.115448852539064 3.295875 Q 7.115448852539064 3.367125 7.139073852539064 3.41775 Q 7.162698852539064 3.468375 7.202823852539064 3.495 Q 7.2429488525390635 3.5216250000000002 7.291698852539064 3.5216250000000002 Q 7.332948852539063 3.5216250000000002 7.3610738525390635 3.5100000000000002 Q 7.389198852539064 3.4983750000000002 7.410948852539064 3.484125 L 7.455948852539064 3.403875 L 7.468698852539064 3.403875 L 7.460448852539064 3.523125 Q 7.438698852539064 3.5343750000000003 7.415823852539064 3.542625 Q 7.392948852539064 3.550875 7.363698852539064 3.555375 Q 7.334448852539063 3.559875 7.293198852539064 3.559875 Z M 7.788867187500002 3.552375 L 7.788867187500002 3.540375 L 7.848867187500002 3.5103750000000002 L 7.848867187500002 3.099375 L 7.788867187500002 3.069375 L 7.788867187500002 3.057375 L 7.983867187500002 3.057375 Q 8.072367187500001 3.057375 8.125992187500001 3.089625 Q 8.179617187500002 3.121875 8.179617187500002 3.191625 Q 8.179617187500002 3.232875 8.151492187500002 3.2647500000000003 Q 8.123367187500001 3.296625 8.074992187500001 3.315375 Q 8.026617187500001 3.3341250000000002 7.965867187500002 3.3341250000000002 L 7.9163671875000015 3.3341250000000002 L 7.9163671875000015 3.5103750000000002 L 7.983867187500002 3.540375 L 7.983867187500002 3.552375 L 7.788867187500002 3.552375 Z M 7.9163671875000015 3.098625 L 7.9163671875000015 3.292875 L 7.980117187500002 3.292875 Q 8.039367187500002 3.292875 8.073117187500001 3.26625 Q 8.106867187500002 3.239625 8.106867187500002 3.197625 Q 8.106867187500002 3.145125 8.072742187500001 3.121875 Q 8.038617187500002 3.098625 7.974867187500002 3.098625 L 7.9163671875000015 3.098625 Z M 8.274821777343751 3.552375 L 8.274821777343751 3.540375 L 8.334821777343752 3.5103750000000002 L 8.334821777343752 3.099375 L 8.274821777343751 3.069375 L 8.274821777343751 3.057375 L 8.468321777343752 3.057375 Q 8.547071777343751 3.057375 8.592446777343751 3.09 Q 8.637821777343751 3.122625 8.637821777343751 3.179625 Q 8.637821777343751 3.221625 8.609321777343752 3.255 Q 8.58082177734375 3.2883750000000003 8.53357177734375 3.305625 L 8.67607177734375 3.513375 L 8.72557177734375 3.540375 L 8.72557177734375 3.552375 L 8.617571777343752 3.552375 L 8.472071777343752 3.325125 L 8.40232177734375 3.325125 L 8.40232177734375 3.509625 L 8.458571777343751 3.540375 L 8.458571777343751 3.552375 L 8.274821777343751 3.552375 Z M 8.451071777343751 3.098625 L 8.40232177734375 3.098625 L 8.40232177734375 3.283875 L 8.455571777343751 3.283875 Q 8.502821777343751 3.283875 8.53394677734375 3.25725 Q 8.565071777343752 3.230625 8.565071777343752 3.189375 Q 8.565071777343752 3.1473750000000003 8.53432177734375 3.123 Q 8.503571777343751 3.098625 8.451071777343751 3.098625 Z M 9.03153405761719 3.559875 Q 8.97753405761719 3.559875 8.93215905761719 3.54075 Q 8.88678405761719 3.5216250000000002 8.853034057617188 3.4875000000000003 Q 8.819284057617189 3.453375 8.800534057617188 3.406875 Q 8.78178405761719 3.360375 8.78178405761719 3.304875 Q 8.78178405761719 3.249375 8.800534057617188 3.202875 Q 8.819284057617189 3.156375 8.853034057617188 3.12225 Q 8.88678405761719 3.0881250000000002 8.93215905761719 3.069 Q 8.97753405761719 3.049875 9.03153405761719 3.049875 Q 9.085534057617188 3.049875 9.131284057617188 3.069 Q 9.177034057617188 3.0881250000000002 9.21078405761719 3.12225 Q 9.244534057617189 3.156375 9.26328405761719 3.202875 Q 9.282034057617189 3.249375 9.282034057617189 3.304875 Q 9.282034057617189 3.360375 9.26328405761719 3.406875 Q 9.244534057617189 3.453375 9.21078405761719 3.4875000000000003 Q 9.177034057617188 3.5216250000000002 9.131284057617188 3.54075 Q 9.085534057617188 3.559875 9.03153405761719 3.559875 Z M 9.047284057617189 3.5223750000000003 Q 9.095284057617189 3.5223750000000003 9.131659057617188 3.4983750000000002 Q 9.16803405761719 3.474375 9.188659057617189 3.430875 Q 9.20928405761719 3.387375 9.20928405761719 3.328125 Q 9.20928405761719 3.255375 9.183784057617189 3.201 Q 9.15828405761719 3.1466250000000002 9.11515905761719 3.116625 Q 9.07203405761719 3.086625 9.01878405761719 3.086625 Q 8.97078405761719 3.086625 8.93365905761719 3.11025 Q 8.896534057617188 3.133875 8.87553405761719 3.177375 Q 8.854534057617188 3.220875 8.854534057617188 3.280125 Q 8.854534057617188 3.352875 8.88040905761719 3.407625 Q 8.906284057617189 3.462375 8.949784057617189 3.492375 Q 8.993284057617188 3.5223750000000003 9.047284057617189 3.5223750000000003 Z M 9.390743408203127 3.552375 L 9.390743408203127 3.540375 L 9.450743408203127 3.5103750000000002 L 9.450743408203127 3.099375 L 9.390743408203127 3.069375 L 9.390743408203127 3.057375 L 9.610493408203126 3.057375 Q 9.692993408203128 3.057375 9.751493408203126 3.086625 Q 9.809993408203127 3.115875 9.840368408203126 3.166875 Q 9.870743408203127 3.2178750000000003 9.870743408203127 3.282375 Q 9.870743408203127 3.340875 9.850868408203127 3.390375 Q 9.830993408203128 3.4398750000000002 9.794993408203126 3.4758750000000003 Q 9.758993408203127 3.511875 9.710618408203127 3.532125 Q 9.662243408203127 3.552375 9.605243408203126 3.552375 L 9.390743408203127 3.552375 Z M 9.593243408203127 3.098625 L 9.518243408203126 3.098625 L 9.518243408203126 3.5111250000000003 L 9.604493408203126 3.5111250000000003 Q 9.664493408203127 3.5111250000000003 9.708368408203127 3.486 Q 9.752243408203126 3.460875 9.775868408203127 3.41475 Q 9.799493408203126 3.368625 9.799493408203126 3.305625 Q 9.799493408203126 3.243375 9.775493408203127 3.1965 Q 9.751493408203126 3.149625 9.705368408203126 3.1241250000000003 Q 9.659243408203126 3.098625 9.593243408203127 3.098625 Z M 10.226958618164065 3.559875 Q 10.170708618164065 3.559875 10.126833618164065 3.538875 Q 10.082958618164065 3.517875 10.057458618164064 3.474 Q 10.031958618164065 3.430125 10.031958618164065 3.360375 L 10.031958618164065 3.099375 L 9.971958618164065 3.069375 L 9.971958618164065 3.057375 L 10.159458618164065 3.057375 L 10.159458618164065 3.069375 L 10.099458618164064 3.099375 L 10.099458618164064 3.349125 Q 10.099458618164064 3.411375 10.118958618164065 3.448125 Q 10.138458618164064 3.484875 10.171833618164065 3.500625 Q 10.205208618164065 3.516375 10.246458618164064 3.516375 Q 10.279458618164064 3.516375 10.307583618164065 3.502125 Q 10.335708618164064 3.487875 10.352583618164065 3.457125 Q 10.369458618164064 3.426375 10.369458618164064 3.375375 L 10.369458618164064 3.097875 L 10.294458618164064 3.069375 L 10.294458618164064 3.057375 L 10.481208618164064 3.057375 L 10.481208618164064 3.069375 L 10.421958618164064 3.098625 L 10.421958618164064 3.360375 Q 10.421958618164064 3.430125 10.396458618164065 3.474 Q 10.370958618164064 3.517875 10.327083618164064 3.538875 Q 10.283208618164064 3.559875 10.226958618164065 3.559875 Z M 10.82992126464844 3.559875 Q 10.75342126464844 3.559875 10.69792126464844 3.528375 Q 10.64242126464844 3.496875 10.61242126464844 3.4425 Q 10.58242126464844 3.388125 10.58242126464844 3.318375 Q 10.58242126464844 3.2651250000000003 10.60304626464844 3.21675 Q 10.62367126464844 3.168375 10.65929626464844 3.130875 Q 10.694921264648439 3.093375 10.741796264648439 3.071625 Q 10.788671264648439 3.049875 10.84117126464844 3.049875 Q 10.87867126464844 3.049875 10.90492126464844 3.0547500000000003 Q 10.93117126464844 3.059625 10.95179626464844 3.0675 Q 10.97242126464844 3.075375 10.99342126464844 3.085875 L 10.99717126464844 3.2171250000000002 L 10.98367126464844 3.2171250000000002 L 10.93792126464844 3.125625 Q 10.90942126464844 3.105375 10.88804626464844 3.096375 Q 10.86667126464844 3.087375 10.83967126464844 3.087375 Q 10.78567126464844 3.087375 10.74329626464844 3.114375 Q 10.70092126464844 3.141375 10.67654626464844 3.18825 Q 10.65217126464844 3.235125 10.65217126464844 3.295875 Q 10.65217126464844 3.367125 10.67579626464844 3.41775 Q 10.69942126464844 3.468375 10.73954626464844 3.495 Q 10.77967126464844 3.5216250000000002 10.82842126464844 3.5216250000000002 Q 10.86967126464844 3.5216250000000002 10.89779626464844 3.5100000000000002 Q 10.92592126464844 3.4983750000000002 10.94767126464844 3.484125 L 10.99267126464844 3.403875 L 11.00542126464844 3.403875 L 10.99717126464844 3.523125 Q 10.975421264648439 3.5343750000000003 10.95254626464844 3.542625 Q 10.929671264648439 3.550875 10.90042126464844 3.555375 Q 10.87117126464844 3.559875 10.82992126464844 3.559875 Z M 11.210870727539065 3.552375 L 11.210870727539065 3.540375 L 11.285870727539065 3.5103750000000002 L 11.285870727539065 3.098625 L 11.163620727539065 3.098625 L 11.112620727539065 3.208875 L 11.100620727539065 3.208875 L 11.100620727539065 3.057375 L 11.538620727539065 3.057375 L 11.538620727539065 3.208875 L 11.526620727539065 3.208875 L 11.475620727539065 3.098625 L 11.353370727539065 3.098625 L 11.353370727539065 3.5103750000000002 L 11.428370727539065 3.540375 L 11.428370727539065 3.552375 L 11.210870727539065 3.552375 Z M 11.77783337402344 3.559875 Q 11.731333374023441 3.559875 11.69908337402344 3.55125 Q 11.66683337402344 3.542625 11.63233337402344 3.525375 L 11.62483337402344 3.402375 L 11.63683337402344 3.402375 L 11.67358337402344 3.481875 Q 11.70058337402344 3.504375 11.72608337402344 3.5145 Q 11.75158337402344 3.524625 11.77783337402344 3.524625 Q 11.82208337402344 3.524625 11.84720837402344 3.501375 Q 11.872333374023441 3.478125 11.872333374023441 3.438375 Q 11.872333374023441 3.4053750000000003 11.85770837402344 3.386625 Q 11.84308337402344 3.367875 11.81570837402344 3.35325 Q 11.788333374023441 3.338625 11.75083337402344 3.319875 Q 11.71558337402344 3.301875 11.690833374023441 3.284625 Q 11.66608337402344 3.267375 11.65333337402344 3.2445 Q 11.640583374023441 3.221625 11.640583374023441 3.187125 Q 11.640583374023441 3.161625 11.65295837402344 3.13725 Q 11.66533337402344 3.112875 11.686708374023441 3.093 Q 11.70808337402344 3.073125 11.734708374023441 3.0615 Q 11.76133337402344 3.049875 11.789833374023441 3.049875 Q 11.82433337402344 3.049875 11.85358337402344 3.058125 Q 11.882833374023441 3.066375 11.91358337402344 3.081375 L 11.921083374023441 3.201375 L 11.90908337402344 3.201375 L 11.874583374023441 3.122625 Q 11.84833337402344 3.103125 11.828833374023441 3.0945 Q 11.80933337402344 3.085875 11.783833374023441 3.085875 Q 11.75083337402344 3.085875 11.72945837402344 3.108375 Q 11.70808337402344 3.130875 11.70808337402344 3.163875 Q 11.70808337402344 3.202125 11.731333374023441 3.2235 Q 11.75458337402344 3.244875 11.80408337402344 3.268875 Q 11.84983337402344 3.291375 11.879083374023441 3.3105 Q 11.90833337402344 3.329625 11.922583374023441 3.354375 Q 11.93683337402344 3.379125 11.93683337402344 3.417375 Q 11.93683337402344 3.4526250000000003 11.921833374023441 3.47925 Q 11.90683337402344 3.505875 11.883208374023441 3.523875 Q 11.85958337402344 3.541875 11.831458374023441 3.550875 Q 11.80333337402344 3.559875 11.77783337402344 3.559875 Z" fill="#ffffff" fill-rule="nonzero"></path></g><g clip-path="url(&quot;#SvgjsClipPath1000&quot;)"><path d=" M 1.5660134926276177 -9.037432126091653 L 10.412028499559883 -9.037432126091653 L 10.412028499559883 -0.2500000000000009 L 1.5660134926276177 -0.2500000000000009 Z" fill="#ffffff" transform="matrix(1,0,0,1,0,0)" fill-rule="nonzero" mask="url(#maskedText)"></path></g></g><defs><clipPath id="SvgjsClipPath1000"><path d=" M 1.5660134926276177 -9.037432126091653 h 8.846015006932264 v 8.787432126091653 h -8.846015006932264 Z"></path></clipPath><mask id="maskedText"><path d=" M 10.412028499559883 -4.643716063045828 C 10.412028499559883 -2.200956248595535 8.431780810544042 -0.2207085595796947 5.98902099609375 -0.2207085595796947 C 3.546261181643458 -0.2207085595796947 1.5660134926276177 -2.200956248595535 1.5660134926276177 -4.643716063045828 C 1.5660134926276177 -7.086475877496119 3.546261181643458 -9.066723566511959 5.98902099609375 -9.066723566511959 C 8.431780810544042 -9.066723566511959 10.412028499559883 -7.086475877496119 10.412028499559883 -4.643716063045828 Z" fill="#ffffff" transform="matrix(1,0,0,1,0,0)" fill-rule="nonzero"></path><path d=" M 3.8234148327934534 -2.5295583958613785 L 4.574987843380056 -6.608706567823777 L 6.387942586474455 -6.763610928784374 C 6.361168993222005 -6.679465349990964 6.338220199005621 -6.59340737167952 6.3190962038253 -6.505436993850045 C 6.29997220864498 -6.432765812164827 6.281804413223675 -6.3572260312025595 6.264592817561386 -6.278817650963245 C 6.247381221899098 -6.200409270723931 6.233038225513857 -6.13060668831576 6.221563828405666 -6.069409903738734 C 6.183315838045024 -6.06558510470267 6.12881245178111 -6.062716505425621 6.058053669613923 -6.0608041059075894 C 5.987294887446737 -6.0588917063895575 5.9117551064844704 -6.056979306871526 5.831434326727123 -6.055066907353494 C 5.751113546969776 -6.053154507835462 5.669836567453414 -6.052198308076445 5.587603388178035 -6.052198308076445 C 5.505370208902656 -6.052198308076445 5.4336552269764535 -6.052198308076445 5.372458442399427 -6.052198308076445 L 5.1716564930060605 -5.025239766893225 C 5.290225263124048 -5.032889364965354 5.4011444351699085 -5.0386265635194505 5.50441400914364 -5.042451362555514 C 5.588559587937051 -5.046276161591578 5.674617566248494 -5.04818856110961 5.7625879440779695 -5.04818856110961 C 5.850558321907444 -5.04818856110961 5.915579905520534 -5.050100960627642 5.95765269491724 -5.053925759663707 C 5.942353498772983 -4.94683138665391 5.9280105023877425 -4.841649413162147 5.914623705761518 -4.738379839188416 C 5.901236909135294 -4.635110265214684 5.884981513232021 -4.52992829172292 5.865857518051701 -4.422833918713124 C 5.8276095276910596 -4.41900911967706 5.765456543355017 -4.416140520400012 5.679398565043574 -4.4142281208819805 C 5.593340586732131 -4.412315721363949 5.506326408661672 -4.409447122086901 5.4183560308321965 -4.405622323050836 C 5.3189112558945295 -4.401797524014771 5.209904483366701 -4.3979727249787075 5.091335713248713 -4.394147925942644 L 4.896270962409442 -3.338503391988943 L 5.733901951307488 -3.4704589587331554 L 5.676529965766526 -2.8164183235661886 L 3.8234148327934534 -2.5295583958613785 Z" fill="NA" transform="matrix(1,0,0,1,0,0)" fill-rule="nonzero"></path><path d=" M 8.15180058061422 -3.370057984036472 C 8.06956740133884 -3.1960296278955536 7.958648229292981 -3.0459062657300366 7.81904306447664 -2.9196878975399203 C 7.679437899660299 -2.7934695293498035 7.514971541109542 -2.6959371539301684 7.325643988824367 -2.627090771281014 C 7.136316436539192 -2.5582443886318593 6.932645887868778 -2.5238211973072824 6.714632342813122 -2.5238211973072824 C 6.561640381370556 -2.5238211973072824 6.408648419927991 -2.564937786944972 6.255656458485426 -2.6471709662203504 C 6.10266449704286 -2.7294041454957294 5.955409734154391 -2.860403512480926 5.8138921698200186 -3.04016906717594 L 6.238444862823137 -3.8720628575198894 C 6.265218456075586 -3.8223404700510555 6.30537884595426 -3.7716618828232056 6.358926032459157 -3.7200270958363397 C 6.412473218964055 -3.6683923088494743 6.4727138037820655 -3.6234509201757206 6.5396477869131875 -3.5852029298150794 C 6.6065817700443095 -3.546954939454438 6.673515753175432 -3.515400347406909 6.740449736306554 -3.490539153672492 C 6.807383719437677 -3.465677959938075 6.867624304255687 -3.453247363070867 6.921171490760585 -3.453247363070867 C 6.9670690791933545 -3.453247363070867 7.0148790671441565 -3.460896961142995 7.06460145461299 -3.4761961572872515 C 7.114323842081824 -3.491495353431508 7.160221430514593 -3.5144441476478927 7.202294219911298 -3.545042539936406 C 7.244367009308004 -3.575640932224919 7.277834000873566 -3.6110203233085123 7.302695194607982 -3.651180713187186 C 7.327556388342399 -3.691341103065859 7.339986985209608 -3.7381948912576446 7.339986985209608 -3.7917420777625424 C 7.339986985209608 -3.8835372546280817 7.310344792680111 -3.9686390331805086 7.251060407621116 -4.047047413419824 C 7.191776022562122 -4.125455793659138 7.118148641117887 -4.2000393748623885 7.030178263288413 -4.270798157029575 C 6.942207885458938 -4.341556939196762 6.846587909557334 -4.4132719211229645 6.743318335583602 -4.485943102808182 C 6.640048761609871 -4.558614284493402 6.545384985467284 -4.635110265214684 6.45932700715584 -4.71543104497203 C 6.373269028844398 -4.795751824729377 6.299641647400163 -4.885634602076885 6.238444862823137 -4.985079377014552 C 6.1772480782461106 -5.08452415195222 6.146649685957598 -5.195443323998079 6.146649685957598 -5.317836893152132 C 6.146649685957598 -5.5167264430274665 6.205934071016592 -5.702229196276577 6.32450284113458 -5.874345152899464 C 6.443071611252568 -6.046461109522349 6.591282573900053 -6.194672072169835 6.7691357290770355 -6.318978040841919 C 6.946988884254018 -6.443284009514002 7.141097435334273 -6.541772584692655 7.3514613823178 -6.614443766377873 C 7.561825329301327 -6.687114948063091 7.760714879176662 -6.723450538905701 7.948130031943805 -6.723450538905701 C 8.051399605917537 -6.723450538905701 8.14893198133717 -6.711019942038493 8.240727158202711 -6.686158748304075 C 8.33252233506825 -6.661297554569658 8.411886915066582 -6.621137164690985 8.478820898197704 -6.565677578668056 C 8.545754881328826 -6.510217992645126 8.599302067833722 -6.440415410236955 8.639462457712398 -6.356269831443544 C 8.67962284759107 -6.2721242526501335 8.699703042530407 -6.16694227915837 8.699703042530407 -6.040723910968254 C 8.699703042530407 -5.987176724463355 8.694922043735327 -5.933629537958458 8.685360046145167 -5.880082351453559 C 8.675798048555006 -5.826535164948661 8.667192250723861 -5.769163179407699 8.659542652651734 -5.707966394830674 L 7.827648862307784 -5.467004055558633 C 7.835298460379913 -5.497602447847147 7.841991858693024 -5.528200840135659 7.847729057247121 -5.558799232424172 C 7.853466255801218 -5.589397624712685 7.8563348550782655 -5.619996017001198 7.8563348550782655 -5.650594409289711 C 7.8563348550782655 -5.765338380371635 7.836254660138929 -5.84852775940603 7.796094270260255 -5.900162546392896 C 7.755933880381582 -5.951797333379762 7.7033428936357 -5.977614726873195 7.63832131002261 -5.977614726873195 C 7.6077229177340975 -5.977614726873195 7.570431127132472 -5.966140329765002 7.5264459382177336 -5.943191535548618 C 7.482460749302996 -5.920242741332233 7.438475560388259 -5.890600548802736 7.3944903714735215 -5.854264957960126 C 7.350505182558784 -5.817929367117517 7.3132133919571585 -5.774900377961796 7.282614999668645 -5.725177990492962 C 7.252016607380133 -5.675455603024128 7.236717411235876 -5.621908416519231 7.236717411235876 -5.5645364309782686 C 7.236717411235876 -5.472741254112729 7.262534804729309 -5.396245273391447 7.314169591716174 -5.3350484888144205 C 7.36580437870304 -5.273851704237394 7.429869762557114 -5.216479718696432 7.506365743278398 -5.162932532191535 C 7.58286172399968 -5.109385345686636 7.666051103034075 -5.054881959422723 7.755933880381582 -4.999422373399792 C 7.845816657729089 -4.943962787376863 7.929006036763484 -4.872247805450661 8.005502017484767 -4.784277427621185 C 8.081997998206049 -4.69630704979171 8.146063382060124 -4.586344077504866 8.197698169046989 -4.454388510760653 C 8.249332956033856 -4.322432944016441 8.275150349527287 -4.155097986188635 8.275150349527287 -3.952383637277236 C 8.275150349527287 -3.7381948912576446 8.234033759889599 -3.54408634017739 8.15180058061422 -3.370057984036472 Z" fill="NA" transform="matrix(1,0,0,1,0,0)" fill-rule="nonzero"></path></mask></defs></svg>